<svg xmlns="http://www.w3.org/2000/svg" viewBox="0 0 512 512">
  <defs>
    <linearGradient id="grad1" x1="0%" y1="0%" x2="100%" y2="100%">
      <stop offset="0%" style="stop-color:#2563eb;stop-opacity:1" />
      <stop offset="100%" style="stop-color:#4f46e5;stop-opacity:1" />
    </linearGradient>
  </defs>
  <rect x="0" y="0" width="512" height="512" rx="120" ry="120" fill="url(#grad1)" />
  <path d="M352 208H248V96c0-8.8-7.2-16-16-16-4.7 0-9.1 2.1-12.1 5.8L115.9 220.2c-5.8 7.3-3.6 18 4.9 22.5 2.1 1.1 4.5 1.7 6.8 1.7h98.7v162.7c0 8.8 7.2 16 16 16 4.7 0 9.1-2.1 12.1-5.8l114.1-143.4c5.8-7.3 3.6-18-4.9-22.5-2.2-1.2-4.6-1.7-7-1.7z" fill="#ffffff"/>
</svg>
